<svg xmlns="http://www.w3.org/2000/svg" viewBox="0 0 800 168"><path fill="currentColor" d="M688.202 4.077c-80.08-10.34-163.17 11.18-239.32 33.96-74.02 22.15-145.7 50.91-217.62 78.93-49.2 19.17-102.99 41.98-156.3 42.68-40.89.53-73.98-27.3-65.18-69.92 3.91-18.96 16.95-38.32 37.45-40.56 49.01-5.36 22.55 63.3-5.6 37.25-2.42-2.25-6 1.3-3.62 3.62 18.27 17.84 46.04-.44 44.74-23.89-1.81-32.61-49.03-24.7-64.07-9.05-22.49 23.41-23.16 62.14-3.15 86.4 24.43 29.6 69.95 24.8 103.07 17.84 66.25-13.91 129.99-43.91 192.98-68 80.33-30.73 162.34-59.05 247.05-74.93 54.04-10.14 113.99-16.28 166.89 2.46 23.19 8.22 42.84 23.53 55.99 44.32 12.37 19.56 9.2 40.84-5.24 58.16-7.97 9.57-19.98 14.75-32.26 12.27-7.73-2.83-13.69-7.77-17.9-14.81-10.07-13.44 7.18-44.27 22.81-26.85 3.24 3.61 8.52-1.71 5.3-5.31-8.54-9.58-19.37-8.2-29.15-1-12.4 9.11-11.56 24.71-5.6 37.03 16.91 35 57.06 16.35 71.48-8.74 35.36-61.51-56.54-105.9-102.75-111.86"/></svg>
